<?xml version="1.0"?>
<svg width="1280" height="720" xmlns="http://www.w3.org/2000/svg" xmlns:svg="http://www.w3.org/2000/svg" clip-rule="evenodd" fill-rule="evenodd" version="1.1">
 <g class="layer">
  <title>Layer 1</title>
  <g id="svg_1">
   <path d="m473.5,404.5c0.66,1.29 0.99,2.79 1,4.5c-1.77,10.53 -2.44,21.03 -2,31.5c-15,0 -30,0 -45,0c-22.99,-31.29 -46.49,-62.29 -70.5,-93c-0.67,31.01 -0.51,62.01 0.5,93c-19.33,0 -38.67,0 -58,0c0.17,-28.33 0,-56.67 -0.5,-85c-11.19,40.52 -36.36,68.36 -75.5,83.5c15.02,4.6 30.35,5.94 46,4c9.11,-2.46 16.61,-7.3 22.5,-14.5c3,5.33 6,10.67 9,16c3.57,7.31 6.74,14.81 9.5,22.5c-8.58,17.65 -22.58,28.65 -42,33c-13.99,1.61 -27.66,0.27 -41,-4c-14,-6.16 -28.33,-11.5 -43,-16c-13.67,-2.69 -27,-1.69 -40,3c-4.33,3.53 -9,6.36 -14,8.5c-3.55,-6.13 -7.39,-12.13 -11.5,-18c-0.67,-1.67 -0.67,-3.33 0,-5c8.7,-11.36 19.53,-20.19 32.5,-26.5c-46.03,-13.04 -74.87,-42.87 -86.5,-89.5c-11.25,-52.86 2.91,-97.36 42.5,-133.5c33.67,-25.5 71,-32.5 112,-21c40.57,14.9 67.07,43.07 79.5,84.5c0.5,-28.33 0.67,-56.66 0.5,-85c34.67,-0.17 69.33,0 104,0.5c40.51,7.06 61.85,31.06 64,72c-0.66,34.63 -16.99,58.3 -49,71c18.54,21.54 36.71,43.38 54.5,65.5c0.46,-0.59 0.63,-1.26 0.5,-2zm-116,-161c13.12,-1.09 25.79,0.74 38,5.5c16,16.67 16,33.33 0,50c-12.26,4.88 -24.93,6.38 -38,4.5c-0.04,-19.88 -0.04,-39.88 0,-60zm-181,7c36.03,-1.48 57.53,15.52 64.5,51c4.57,26.26 -1.1,49.92 -17,71c-11.63,10.17 -25.3,15.17 -41,15c-24.87,0.96 -42.54,-9.7 -53,-32c-6.56,-18.5 -8.22,-37.5 -5,-57c3.99,-16.66 12.82,-30.16 26.5,-40.5c8.04,-3.85 16.38,-6.35 25,-7.5z" fill="#ffffff" id="svg_2" opacity="1"/>
  </g>
  <g id="svg_3">
   <path d="m884.5,291.5c17.67,-0.67 35.33,-1.33 53,-2c0.67,4.18 1.33,8.52 2,13c20.3,-18.96 43.63,-23.46 70,-13.5c20.65,6.48 33.15,20.31 37.5,41.5c0.5,36.67 0.67,73.33 0.5,110c-18,0 -36,0 -54,0c0.17,-30.67 0,-61.33 -0.5,-92c-6.06,-19.13 -18.56,-25.3 -37.5,-18.5c-7.62,4.29 -13.12,10.45 -16.5,18.5c-0.5,30.67 -0.67,61.33 -0.5,92c-18,0 -36,0 -54,0c0.17,-10.67 0,-21.34 -0.5,-32c-18.69,25.92 -44.19,38.25 -76.5,37c-29.18,-0.08 -52.35,-11.74 -69.5,-35c0.3,9.98 0.8,19.98 1.5,30c-19,0 -38,0 -57,0c-3.34,-47.04 -7.17,-94.04 -11.5,-141c-15.86,46.44 -31.86,92.78 -48,139c-11.75,0.99 -23.59,1.32 -35.5,1c-15.9,-46.79 -32.07,-93.46 -48.5,-140c-4.35,46.96 -8.18,93.96 -11.5,141c-18.33,0 -36.67,0 -55,0c-0.44,-10.47 0.23,-20.97 2,-31.5c-0.01,-1.71 -0.34,-3.21 -1,-4.5c6.44,-68.96 12.44,-137.96 18,-207c20.34,-0.33 40.68,0 61,1c17.98,45.44 35.48,91.11 52.5,137c17.18,-45.75 34.52,-91.42 52,-137c20.42,-0.99 40.92,-1.33 61.5,-1c3.67,44.02 7.67,88.02 12,132c27.53,-42.55 65.53,-55.38 114,-38.5c19.41,8.75 32.58,23.25 39.5,43.5c0.5,-14.33 0.67,-28.66 0.5,-43zm-85,29c18.11,-3.29 30.11,3.55 36,20.5c-0.5,0.5 -1,1 -1.5,1.5c-17.42,-0.99 -34.92,-1.32 -52.5,-1c0.32,-5.31 2.32,-9.97 6,-14c3.77,-2.88 7.77,-5.21 12,-7zm-20,53c35,0 70,0 105,0c0.17,10.01 0,20.01 -0.5,30c-12.02,-6.17 -24.19,-12.17 -36.5,-18c-5.17,4.33 -10.5,8.49 -16,12.5c-13.2,4.99 -26.2,4.66 -39,-1c-8.86,-5.36 -13.2,-13.19 -13,-23.5z" fill="#ffffff" id="svg_4" opacity="0.97"/>
  </g>
  <g id="svg_9">
   <path d="m1159.5,291.5c18,-1.33 36,-1.33 54,0c0.38,34.02 -0.12,68.02 -1.5,102c-5.43,27.96 -22.26,44.46 -50.5,49.5c-20.33,3.28 -40.66,3.28 -61,0c-33.82,-6.96 -50.98,-27.79 -51.5,-62.5c-0.67,-30.33 -0.67,-60.67 0,-91c17.76,-0.99 35.59,-1.33 53.5,-1c-0.17,26.67 0,53.33 0.5,80c1.44,28.74 15.94,38.58 43.5,29.5c6.03,-4.69 9.86,-10.86 11.5,-18.5c1.41,-29.31 1.91,-58.64 1.5,-88z" fill="#ffffff" id="svg_10" opacity="0.97"/>
  </g>
  <line fill="none" id="svg_15" opacity="1000" stroke="#ffffff" stroke-width="10" x1="884.63" x2="937.63" y1="292.66" y2="292.66"/>
  <line fill="none" id="svg_16" opacity="1000" stroke="#ffffff" stroke-width="10" x1="1159.63" x2="1213.63" y1="291.66" y2="292.66"/>
 </g>
</svg>